<svg version="1.1" viewBox="0.0 0.0 960.0 720.0" fill="none" stroke="none" stroke-linecap="square" stroke-miterlimit="10" xmlns:xlink="http://www.w3.org/1999/xlink" xmlns="http://www.w3.org/2000/svg"><clipPath id="p.0"><path d="m0 0l960.0 0l0 720.0l-960.0 0l0 -720.0z" clip-rule="nonzero"/></clipPath><g clip-path="url(#p.0)"><path fill="#000000" fill-opacity="0.0" d="m0 0l960.0 0l0 720.0l-960.0 0z" fill-rule="evenodd"/><path fill="#000000" fill-opacity="0.0" d="m150.50394 56.671917l1.8582611 271.2756" fill-rule="evenodd"/><path stroke="#000000" stroke-width="24.0" stroke-linejoin="round" stroke-linecap="butt" d="m150.50394 56.671917l1.8582611 271.2756" fill-rule="evenodd"/><path fill="#000000" fill-opacity="0.0" d="m95.685036 36.228348l111.49607 39.02362" fill-rule="evenodd"/><path stroke="#000000" stroke-width="24.0" stroke-linejoin="round" stroke-linecap="butt" d="m95.685036 36.228348l111.49607 39.02362" fill-rule="evenodd"/><path fill="#000000" fill-opacity="0.0" d="m196.02625 159.79265l1.8582764 169.07088" fill-rule="evenodd"/><path stroke="#000000" stroke-width="24.0" stroke-linejoin="round" stroke-linecap="butt" d="m196.02625 159.79265l1.8582764 169.07088" fill-rule="evenodd"/><path fill="#000000" fill-opacity="0.0" d="m198.81364 231.32808l74.3307 2.8031616" fill-rule="evenodd"/><path stroke="#000000" stroke-width="24.0" stroke-linejoin="round" stroke-linecap="butt" d="m198.81364 231.32808l74.3307 2.8031616" fill-rule="evenodd"/><path fill="#000000" fill-opacity="0.0" d="m270.3491 163.50919l0.9133911 168.15747" fill-rule="evenodd"/><path stroke="#000000" stroke-width="24.0" stroke-linejoin="round" stroke-linecap="butt" d="m270.3491 163.50919l0.9133911 168.15747" fill-rule="evenodd"/><path fill="#000000" fill-opacity="0.0" d="m343.74277 174.6588l-39.93698 157.92125" fill-rule="evenodd"/><path stroke="#000000" stroke-width="24.0" stroke-linejoin="round" stroke-linecap="butt" d="m343.74277 174.6588l-39.93698 157.92125" fill-rule="evenodd"/><path fill="#000000" fill-opacity="0.0" d="m341.88452 175.58792l56.661407 153.29135" fill-rule="evenodd"/><path stroke="#000000" stroke-width="24.0" stroke-linejoin="round" stroke-linecap="butt" d="m341.88452 175.58792l56.661407 153.29135" fill-rule="evenodd"/><path fill="#000000" fill-opacity="0.0" d="m320.51706 276.8504l46.456696 -8.346466" fill-rule="evenodd"/><path stroke="#000000" stroke-width="24.0" stroke-linejoin="round" stroke-linecap="butt" d="m320.51706 276.8504l46.456696 -8.346466" fill-rule="evenodd"/><path fill="#000000" fill-opacity="0.0" d="m423.6378 182.08923l1.8582764 158.86615" fill-rule="evenodd"/><path stroke="#000000" stroke-width="24.0" stroke-linejoin="round" stroke-linecap="butt" d="m423.6378 182.08923l1.8582764 158.86615" fill-rule="evenodd"/><path fill="#000000" fill-opacity="0.0" d="m428.28348 186.73491l70.61417 165.35432" fill-rule="evenodd"/><path stroke="#000000" stroke-width="24.0" stroke-linejoin="round" stroke-linecap="butt" d="m428.28348 186.73491l70.61417 165.35432" fill-rule="evenodd"/><path fill="#000000" fill-opacity="0.0" d="m512.8268 187.66405l-1.8582764 154.23622" fill-rule="evenodd"/><path stroke="#000000" stroke-width="24.0" stroke-linejoin="round" stroke-linecap="butt" d="m512.8268 187.66405l-1.8582764 154.23622" fill-rule="evenodd"/><path fill="#000000" fill-opacity="0.0" d="m579.71655 176.51706l-3.7165527 176.50394" fill-rule="evenodd"/><path stroke="#000000" stroke-width="24.0" stroke-linejoin="round" stroke-linecap="butt" d="m579.71655 176.51706l-3.7165527 176.50394" fill-rule="evenodd"/><path fill="#000000" fill-opacity="0.0" d="m653.1102 190.45145l-74.33069 92.91339" fill-rule="evenodd"/><path stroke="#000000" stroke-width="24.0" stroke-linejoin="round" stroke-linecap="butt" d="m653.1102 190.45145l-74.33069 92.91339" fill-rule="evenodd"/><path fill="#000000" fill-opacity="0.0" d="m581.5748 280.56693l83.62201 56.661407" fill-rule="evenodd"/><path stroke="#000000" stroke-width="24.0" stroke-linejoin="round" stroke-linecap="butt" d="m581.5748 280.56693l83.62201 56.661407" fill-rule="evenodd"/><path fill="#000000" fill-opacity="0.0" d="m125.419945 394.8399l65.95275 88.25195" fill-rule="evenodd"/><path stroke="#000000" stroke-width="24.0" stroke-linejoin="round" stroke-linecap="butt" d="m125.419945 394.8399l65.95275 88.25195" fill-rule="evenodd"/><path fill="#000000" fill-opacity="0.0" d="m224.82677 402.27036l-58.519684 201.6063" fill-rule="evenodd"/><path stroke="#000000" stroke-width="24.0" stroke-linejoin="round" stroke-linecap="butt" d="m224.82677 402.27036l-58.519684 201.6063" fill-rule="evenodd"/><path fill="#000000" fill-opacity="0.0" d="m252.69554 425.49606l55.74803 -0.9133911" fill-rule="evenodd"/><path stroke="#000000" stroke-width="24.0" stroke-linejoin="round" stroke-linecap="butt" d="m252.69554 425.49606l55.74803 -0.9133911" fill-rule="evenodd"/><path fill="#000000" fill-opacity="0.0" d="m254.5538 432.0l0 84.53546" fill-rule="evenodd"/><path stroke="#000000" stroke-width="24.0" stroke-linejoin="round" stroke-linecap="butt" d="m254.5538 432.0l0 84.53546" fill-rule="evenodd"/><path fill="#000000" fill-opacity="0.0" d="m254.5538 516.5407l63.18109 -0.9133911" fill-rule="evenodd"/><path stroke="#000000" stroke-width="24.0" stroke-linejoin="round" stroke-linecap="butt" d="m254.5538 516.5407l63.18109 -0.9133911" fill-rule="evenodd"/><path fill="#000000" fill-opacity="0.0" d="m317.72964 515.6142l0 -92.91342" fill-rule="evenodd"/><path stroke="#000000" stroke-width="24.0" stroke-linejoin="round" stroke-linecap="butt" d="m317.72964 515.6142l0 -92.91342" fill-rule="evenodd"/><path fill="#000000" fill-opacity="0.0" d="m364.1811 424.56693l0 109.63779" fill-rule="evenodd"/><path stroke="#000000" stroke-width="24.0" stroke-linejoin="round" stroke-linecap="butt" d="m364.1811 424.56693l0 109.63779" fill-rule="evenodd"/><path fill="#000000" fill-opacity="0.0" d="m364.1811 534.1942l81.763794 -2.8031616" fill-rule="evenodd"/><path stroke="#000000" stroke-width="24.0" stroke-linejoin="round" stroke-linecap="butt" d="m364.1811 534.1942l81.763794 -2.8031616" fill-rule="evenodd"/><path fill="#000000" fill-opacity="0.0" d="m445.9344 531.4068l-6.4881897 -100.346436" fill-rule="evenodd"/><path stroke="#000000" stroke-width="24.0" stroke-linejoin="round" stroke-linecap="butt" d="m445.9344 531.4068l-6.4881897 -100.346436" fill-rule="evenodd"/><path fill="#000000" fill-opacity="0.0" d="m572.28345 379.04462l-11.149597 153.29132" fill-rule="evenodd"/><path stroke="#000000" stroke-width="24.0" stroke-linejoin="round" stroke-linecap="butt" d="m572.28345 379.04462l-11.149597 153.29132" fill-rule="evenodd"/><path fill="#000000" fill-opacity="0.0" d="m554.63257 578.7874l0.9133911 19.496033" fill-rule="evenodd"/><path stroke="#000000" stroke-width="24.0" stroke-linejoin="round" stroke-linecap="butt" d="m554.63257 578.7874l0.9133911 19.496033" fill-rule="evenodd"/></g></svg>